<?xml version="1.0" encoding="utf-8" ?>
<!DOCTYPE svg PUBLIC "-//W3C//DTD SVG 1.1//EN" "http://www.w3.org/Graphics/SVG/1.1/DTD/svg11.dtd">
<svg height="804" version="1.1" width="1005" xmlns="http://www.w3.org/2000/svg">
<rect fill="#ffffff" height="216" stroke="#ffffff" stroke-width="1" width="308" x="366" y="214"/>
<rect fill="none" height="216" stroke="#000000" stroke-width="1" width="308" x="366" y="214"/>
<text font-family="Dialog" font-size="12" x="479" y="227">
+ &lt;&lt;Ciclo&gt;&gt;</text>
<rect fill="#000000" height="1" stroke="#000000" stroke-width="1" width="308" x="366" y="237"/>
<text font-family="Dialog" font-size="12" x="370" y="251">
#cdUsuarioRegistro : Integer</text>
<text font-family="Dialog" font-size="12" x="370" y="267">
#cdUbs : Integer</text>
<text font-family="Dialog" font-size="12" x="370" y="283">
#dtRegistro : Integer</text>
<text font-family="Dialog" font-size="12" x="370" y="299">
#hrRegistro : Integer</text>
<text font-family="Dialog" font-size="12" x="370" y="315">
#db_maua : Conexao</text>
<text font-family="Dialog" font-size="12" x="370" y="331">
#attr : String</text>
<rect fill="#000000" height="1" stroke="#000000" stroke-width="1" width="308" x="366" y="341"/>
<text font-family="Dialog" font-size="12" x="370" y="355">
+__construct()</text>
<text font-family="Dialog" font-size="12" x="370" y="371">
+&lt;&lt;cadastrar&gt;&gt;(out ok : Boolean)</text>
<text font-family="Dialog" font-size="12" x="370" y="387">
+&lt;&lt;selecionar&gt;&gt;(id : Integer)</text>
<text font-family="Dialog" font-size="12" x="370" y="403">
+&lt;&lt;atualizar&gt;&gt;(id : Integer,out ok : Boolean)</text>
<text font-family="Dialog" font-size="12" x="370" y="419">
+getters&amp;setters()</text>
<rect fill="#ffffff" height="456" stroke="#ffffff" stroke-width="1" width="281" x="14" y="246"/>
<rect fill="none" height="456" stroke="#000000" stroke-width="1" width="281" x="14" y="246"/>
<text font-family="Dialog" font-size="12" x="123" y="259">
+ Paciente</text>
<rect fill="#000000" height="1" stroke="#000000" stroke-width="1" width="281" x="14" y="269"/>
<text font-family="Dialog" font-size="12" x="18" y="283">
-cdPaciente : Integer</text>
<text font-family="Dialog" font-size="12" x="18" y="299">
-cdCnsPaciente : Integer</text>
<text font-family="Dialog" font-size="12" x="18" y="315">
-nmJustificativa : String</text>
<text font-family="Dialog" font-size="12" x="18" y="331">
-nmPaciente : String</text>
<text font-family="Dialog" font-size="12" x="18" y="347">
-nmMae : String</text>
<text font-family="Dialog" font-size="12" x="18" y="363">
-icSexo : String</text>
<text font-family="Dialog" font-size="12" x="18" y="379">
-icRaca : String</text>
<text font-family="Dialog" font-size="12" x="18" y="395">
-dtNascimento : String</text>
<text font-family="Dialog" font-size="12" x="18" y="411">
-nmPaisNascimento : String</text>
<text font-family="Dialog" font-size="12" x="18" y="427">
-nmMunicipioNascimento : String</text>
<text font-family="Dialog" font-size="12" x="18" y="443">
-nmPaisResidencia : String</text>
<text font-family="Dialog" font-size="12" x="18" y="459">
-nmMunicipioResidencia : String</text>
<text font-family="Dialog" font-size="12" x="18" y="475">
-cdCep : String</text>
<text font-family="Dialog" font-size="12" x="18" y="491">
-nmLogradouro : String</text>
<text font-family="Dialog" font-size="12" x="18" y="507">
-nmNumeroResidencia : String</text>
<text font-family="Dialog" font-size="12" x="18" y="523">
-nmComplemento : String</text>
<text font-family="Dialog" font-size="12" x="18" y="539">
-nmBairro : String</text>
<text font-family="Dialog" font-size="12" x="18" y="555">
-nmResponsavel : String</text>
<text font-family="Dialog" font-size="12" x="18" y="571">
-cdDocumentoResponsavel : String</text>
<text font-family="Dialog" font-size="12" x="18" y="587">
-nmOrgaoEmissor : String</text>
<text font-family="Dialog" font-size="12" x="18" y="603">
-cdUbsReferencia : Integer</text>
<rect fill="#000000" height="1" stroke="#000000" stroke-width="1" width="281" x="14" y="613"/>
<text font-family="Dialog" font-size="12" x="18" y="627">
+cadastrar(out ok : Boolean)</text>
<text font-family="Dialog" font-size="12" x="18" y="643">
+selecionar(id : Integer)</text>
<text font-family="Dialog" font-size="12" x="18" y="659">
+atualizar(id : Integer,out ok : Boolean)</text>
<text font-family="Dialog" font-size="12" x="18" y="675">
+getAllNames(out array_nomes : String)</text>
<text font-family="Dialog" font-size="12" x="18" y="691">
+getters&amp;setters()</text>
<polyline fill="none" points="294,334 366,334" stroke="#000000" stroke-width="1"/>
<polygon fill="#ffffff" points="366,334 354,341 354,327" stroke="#ffffff" stroke-width="1"/>
<polygon fill="none" points="366,334 354,341 354,327" stroke="#000000" stroke-width="1"/>
<rect fill="#ffffff" height="88" stroke="#ffffff" stroke-width="1" width="194" x="534" y="54"/>
<rect fill="none" height="88" stroke="#000000" stroke-width="1" width="194" x="534" y="54"/>
<text font-family="Dialog" font-size="12" x="599" y="67">
+ Conexao</text>
<rect fill="#000000" height="1" stroke="#000000" stroke-width="1" width="194" x="534" y="77"/>
<text font-family="Dialog" font-size="12" x="538" y="91">
+conn_link</text>
<rect fill="#000000" height="1" stroke="#000000" stroke-width="1" width="194" x="534" y="101"/>
<text font-family="Dialog" font-size="12" x="538" y="115">
+get_db_maua(out db_maua)</text>
<text font-family="Dialog" font-size="12" x="538" y="131">
+__construct()</text>
<rect fill="#ffffff" height="168" stroke="#ffffff" stroke-width="1" width="259" x="214" y="14"/>
<rect fill="none" height="168" stroke="#000000" stroke-width="1" width="259" x="214" y="14"/>
<text font-family="Dialog" font-size="12" x="315" y="27">
+ Usuario</text>
<rect fill="#000000" height="1" stroke="#000000" stroke-width="1" width="259" x="214" y="37"/>
<text font-family="Dialog" font-size="12" x="218" y="51">
-id : Integer</text>
<text font-family="Dialog" font-size="12" x="218" y="67">
-permission : String</text>
<rect fill="#000000" height="1" stroke="#000000" stroke-width="1" width="259" x="214" y="77"/>
<text font-family="Dialog" font-size="12" x="218" y="91">
+__construct()</text>
<text font-family="Dialog" font-size="12" x="218" y="107">
+getId(out id : Integer)</text>
<text font-family="Dialog" font-size="12" x="218" y="123">
+getPermission(out permission : String)</text>
<text font-family="Dialog" font-size="12" x="218" y="139">
-buscarPermissao()</text>
<text font-family="Dialog" font-size="12" x="218" y="155">
-setId(id : Integer)</text>
<text font-family="Dialog" font-size="12" x="218" y="171">
-setPermission(permission : String)</text>
<rect fill="#ffffff" height="168" stroke="#ffffff" stroke-width="1" width="369" x="350" y="478"/>
<rect fill="none" height="168" stroke="#000000" stroke-width="1" width="369" x="350" y="478"/>
<text font-family="Dialog" font-size="12" x="507" y="491">
+ Espera</text>
<rect fill="#000000" height="1" stroke="#000000" stroke-width="1" width="369" x="350" y="501"/>
<text font-family="Dialog" font-size="12" x="354" y="515">
-icFinalizada : Boolean</text>
<text font-family="Dialog" font-size="12" x="354" y="531">
#cdPaciente : Integer</text>
<text font-family="Dialog" font-size="12" x="354" y="547">
-cdEspera : Integer</text>
<rect fill="#000000" height="1" stroke="#000000" stroke-width="1" width="369" x="350" y="557"/>
<text font-family="Dialog" font-size="12" x="354" y="571">
+cadastrar(out ok : Boolean)</text>
<text font-family="Dialog" font-size="12" x="354" y="587">
+selecionar(id : Integer)</text>
<text font-family="Dialog" font-size="12" x="354" y="603">
+selecionarListaCompleta(out array_lista_espera : String)</text>
<text font-family="Dialog" font-size="12" x="354" y="619">
+getters&amp;setters()</text>
<text font-family="Dialog" font-size="12" x="354" y="635">
+atualizar(id : Integer,out ok : Boolean)</text>
<polyline fill="none" points="478,478 478,429" stroke="#000000" stroke-width="1"/>
<polygon fill="#ffffff" points="478,429 485,441 471,441" stroke="#ffffff" stroke-width="1"/>
<polygon fill="none" points="478,429 485,441 471,441" stroke="#000000" stroke-width="1"/>
<rect fill="#ffffff" height="69" stroke="#ffffff" stroke-width="1" width="334" x="350" y="686"/>
<rect fill="none" height="69" stroke="#000000" stroke-width="1" width="334" x="350" y="686"/>
<text font-family="Dialog" font-size="12" x="486" y="699">
+ Etiqueta</text>
<rect fill="#000000" height="1" stroke="#000000" stroke-width="1" width="334" x="350" y="709"/>
<rect fill="#000000" height="1" stroke="#000000" stroke-width="1" width="334" x="350" y="730"/>
<text font-family="Dialog" font-size="12" x="354" y="744">
+__construct(cdPaciente : Integer,out ok : Boolean)</text>
<polyline fill="none" points="523,686 523,645" stroke="#000000" stroke-width="1"/>
<polygon fill="#ffffff" points="523,645 530,657 516,657" stroke="#ffffff" stroke-width="1"/>
<polygon fill="none" points="523,645 530,657 516,657" stroke="#000000" stroke-width="1"/>
<rect fill="#ffffff" height="392" stroke="#ffffff" stroke-width="1" width="217" x="774" y="398"/>
<rect fill="none" height="392" stroke="#000000" stroke-width="1" width="217" x="774" y="398"/>
<text font-family="Dialog" font-size="12" x="851" y="411">
+ Triagem</text>
<rect fill="#000000" height="1" stroke="#000000" stroke-width="1" width="217" x="774" y="421"/>
<text font-family="Dialog" font-size="12" x="778" y="435">
-cdTriagem : Integer</text>
<text font-family="Dialog" font-size="12" x="778" y="451">
-icFinalizada : Boolean</text>
<text font-family="Dialog" font-size="12" x="778" y="467">
-dsQueixa : String</text>
<text font-family="Dialog" font-size="12" x="778" y="483">
-vlPressaoMin : Integer</text>
<text font-family="Dialog" font-size="12" x="778" y="499">
-vlPressaoMax : Integer</text>
<text font-family="Dialog" font-size="12" x="778" y="515">
-vlPulso : Integer</text>
<text font-family="Dialog" font-size="12" x="778" y="531">
-vlTemperatura : Integer</text>
<text font-family="Dialog" font-size="12" x="778" y="547">
-vlRespiracao : Integer</text>
<text font-family="Dialog" font-size="12" x="778" y="563">
-vlSaturacao : Integer</text>
<text font-family="Dialog" font-size="12" x="778" y="579">
-vlGlicemia : Integer</text>
<text font-family="Dialog" font-size="12" x="778" y="595">
-vlNivelConsciencia : Integer</text>
<text font-family="Dialog" font-size="12" x="778" y="611">
-vlEscalaDor : Integer</text>
<text font-family="Dialog" font-size="12" x="778" y="627">
-icAlergia : String</text>
<text font-family="Dialog" font-size="12" x="778" y="643">
-dsAlergia : String</text>
<text font-family="Dialog" font-size="12" x="778" y="659">
-dsObservacao : String</text>
<text font-family="Dialog" font-size="12" x="778" y="675">
-vlClassificacaoRisco : Integer</text>
<text font-family="Dialog" font-size="12" x="778" y="691">
-dsLinhaCuidado : String</text>
<text font-family="Dialog" font-size="12" x="778" y="707">
-dsOutrasCondicoes : String</text>
<text font-family="Dialog" font-size="12" x="778" y="723">
-cdPaciente : Integer</text>
<rect fill="#000000" height="1" stroke="#000000" stroke-width="1" width="217" x="774" y="733"/>
<text font-family="Dialog" font-size="12" x="778" y="747">
+cadastrar(out ok : Boolean)</text>
<text font-family="Dialog" font-size="12" x="778" y="763">
+selecionar(id : Integer)</text>
<text font-family="Dialog" font-size="12" x="778" y="779">
+getters&amp;setters()</text>
<polyline fill="none" points="774,494 742,494 742,390 673,390" stroke="#000000" stroke-width="1"/>
<polygon fill="#ffffff" points="673,390 685,383 685,397" stroke="#ffffff" stroke-width="1"/>
<polygon fill="none" points="673,390 685,383 685,397" stroke="#000000" stroke-width="1"/>
<rect fill="#ffffff" height="184" stroke="#ffffff" stroke-width="1" width="192" x="782" y="174"/>
<rect fill="none" height="184" stroke="#000000" stroke-width="1" width="192" x="782" y="174"/>
<text font-family="Dialog" font-size="12" x="838" y="187">
+ Diagnostico</text>
<rect fill="#000000" height="1" stroke="#000000" stroke-width="1" width="192" x="782" y="197"/>
<text font-family="Dialog" font-size="12" x="786" y="211">
-cdDiagnostico : Integer</text>
<text font-family="Dialog" font-size="12" x="786" y="227">
-dsAvaliacao : String</text>
<text font-family="Dialog" font-size="12" x="786" y="243">
-cdCid : String</text>
<text font-family="Dialog" font-size="12" x="786" y="259">
-dsPrescricao : String</text>
<text font-family="Dialog" font-size="12" x="786" y="275">
-icSItuacao : String</text>
<text font-family="Dialog" font-size="12" x="786" y="291">
-cdTriagem : Integer</text>
<rect fill="#000000" height="1" stroke="#000000" stroke-width="1" width="192" x="782" y="301"/>
<text font-family="Dialog" font-size="12" x="786" y="315">
+cadastrar(out ok : Boolean)</text>
<text font-family="Dialog" font-size="12" x="786" y="331">
+selecionar(id : Integer)</text>
<text font-family="Dialog" font-size="12" x="786" y="347">
+getters&amp;setters()</text>
<polyline fill="none" points="782,262 673,262" stroke="#000000" stroke-width="1"/>
<polygon fill="#ffffff" points="673,262 685,255 685,269" stroke="#ffffff" stroke-width="1"/>
<polygon fill="none" points="673,262 685,255 685,269" stroke="#000000" stroke-width="1"/>
<polyline fill="none" points="414,214 414,181" stroke="#000000" stroke-width="1"/>
<text font-family="Dialog" font-size="12" x="336" y="203">
 </text>
<polyline fill="none" points="622,214 622,141" stroke="#000000" stroke-width="1"/>
<text font-family="Dialog" font-size="12" x="544" y="183">
 </text>
<polyline fill="none" points="472,94 534,94" stroke="#000000" stroke-width="1"/>
<text font-family="Dialog" font-size="12" x="472" y="74">
 </text>
</svg>
